<svg xmlns="http://www.w3.org/2000/svg" viewBox="0 0 512 512">
  <defs>
    <linearGradient id="bg5" x1="0%" y1="0%" x2="100%" y2="100%">
      <stop offset="0%" style="stop-color:#6366f1"/>
      <stop offset="100%" style="stop-color:#4f46e5"/>
    </linearGradient>
  </defs>
  <!-- Rounded square background -->
  <rect x="50" y="50" width="412" height="412" rx="80" fill="url(#bg5)"/>

  <!-- Scattered question marks and checkmarks, rotated randomly -->

  <!-- Question mark 1 - top left area -->
  <text x="110" y="150" font-family="Arial, sans-serif" font-size="72" font-weight="bold" fill="white" opacity="0.85" text-anchor="middle" dominant-baseline="middle" transform="rotate(-25,110,150)">?</text>

  <!-- Checkmark 1 - top right -->
  <g transform="translate(370,130) rotate(20)">
    <polyline points="-18,2 -6,16 18,-14" fill="none" stroke="#a5f3fc" stroke-width="10" stroke-linecap="round" stroke-linejoin="round" opacity="0.9"/>
  </g>

  <!-- Question mark 2 - mid right -->
  <text x="390" y="270" font-family="Arial, sans-serif" font-size="56" font-weight="bold" fill="white" opacity="0.6" text-anchor="middle" dominant-baseline="middle" transform="rotate(35,390,270)">?</text>

  <!-- Checkmark 2 - center left -->
  <g transform="translate(140,300) rotate(-40)">
    <polyline points="-14,2 -4,14 14,-12" fill="none" stroke="#a5f3fc" stroke-width="8" stroke-linecap="round" stroke-linejoin="round" opacity="0.7"/>
  </g>

  <!-- Question mark 3 - large, center -->
  <text x="256" y="260" font-family="Arial, sans-serif" font-size="110" font-weight="bold" fill="white" opacity="1" text-anchor="middle" dominant-baseline="middle" transform="rotate(8,256,260)">?</text>

  <!-- Checkmark 3 - bottom center-right -->
  <g transform="translate(320,390) rotate(-15)">
    <polyline points="-20,2 -7,18 20,-16" fill="none" stroke="#a5f3fc" stroke-width="11" stroke-linecap="round" stroke-linejoin="round" opacity="0.85"/>
  </g>

  <!-- Question mark 4 - bottom left, small -->
  <text x="160" y="410" font-family="Arial, sans-serif" font-size="48" font-weight="bold" fill="white" opacity="0.5" text-anchor="middle" dominant-baseline="middle" transform="rotate(50,160,410)">?</text>

  <!-- Checkmark 4 - top center -->
  <g transform="translate(250,120) rotate(-55)">
    <polyline points="-12,2 -4,12 12,-10" fill="none" stroke="#a5f3fc" stroke-width="7" stroke-linecap="round" stroke-linejoin="round" opacity="0.55"/>
  </g>

  <!-- Question mark 5 - small, far right -->
  <text x="420" y="400" font-family="Arial, sans-serif" font-size="40" font-weight="bold" fill="white" opacity="0.4" text-anchor="middle" dominant-baseline="middle" transform="rotate(-60,420,400)">?</text>

  <!-- Checkmark 5 - left edge -->
  <g transform="translate(100,230) rotate(30)">
    <polyline points="-10,2 -3,10 10,-8" fill="none" stroke="#a5f3fc" stroke-width="6" stroke-linecap="round" stroke-linejoin="round" opacity="0.45"/>
  </g>

  <!-- Question mark 6 - tiny, upper right -->
  <text x="330" y="180" font-family="Arial, sans-serif" font-size="36" font-weight="bold" fill="white" opacity="0.4" text-anchor="middle" dominant-baseline="middle" transform="rotate(70,330,180)">?</text>

  <!-- Checkmark 6 - bottom left corner -->
  <g transform="translate(110, 370) rotate(65)">
    <polyline points="-8,2 -2,8 8,-6" fill="none" stroke="#a5f3fc" stroke-width="5" stroke-linecap="round" stroke-linejoin="round" opacity="0.35"/>
  </g>
</svg>
